<svg xmlns="http://www.w3.org/2000/svg" width="1200" height="480" viewBox="0 0 1200 480" role="img" aria-labelledby="title desc">
  <title id="title">YOLO LIVE 8-bit monochrome gaming banner</title>
  <desc id="desc">Black and white pixel-art banner with skulls, detection boxes, scanlines, and HUD elements.</desc>
  <defs>
    <pattern id="scanlines" width="8" height="8" patternUnits="userSpaceOnUse">
      <rect width="8" height="4" fill="#000"/>
      <rect y="4" width="8" height="1" fill="#fff" opacity="0.10"/>
    </pattern>
    <pattern id="dither" width="16" height="16" patternUnits="userSpaceOnUse">
      <rect width="16" height="16" fill="#000"/>
      <rect x="0" y="0" width="4" height="4" fill="#fff" opacity="0.20"/>
      <rect x="8" y="8" width="4" height="4" fill="#fff" opacity="0.16"/>
    </pattern>
    <style>
      .bg { fill: #000; }
      .white { fill: #fff; }
      .stroke { fill: none; stroke: #fff; stroke-width: 6; shape-rendering: crispEdges; }
      .thin { fill: none; stroke: #fff; stroke-width: 3; shape-rendering: crispEdges; }
      .pixel { font-family: "Courier New", monospace; font-weight: 900; fill: #fff; letter-spacing: 6px; }
      .tiny { font-family: "Courier New", monospace; font-weight: 700; fill: #fff; letter-spacing: 2px; }
      .blink { animation: blink 1.15s steps(2, end) infinite; }
      .pulse { animation: pulse 1.8s steps(3, end) infinite; }
      @keyframes blink { 50% { opacity: 0.25; } }
      @keyframes pulse { 50% { opacity: 0.55; } }
    </style>
  </defs>

  <rect class="bg" width="1200" height="480"/>
  <rect width="1200" height="480" fill="url(#dither)" opacity="0.8"/>
  <rect width="1200" height="480" fill="url(#scanlines)" opacity="0.9"/>

  <!-- CRT frame -->
  <rect x="28" y="28" width="1144" height="424" class="stroke"/>
  <rect x="48" y="48" width="1104" height="384" class="thin" opacity="0.45"/>
  <path d="M64 84H210M990 84h146M64 396h146M990 396h146" class="thin"/>

  <!-- HUD ticks -->
  <g opacity="0.75">
    <path d="M600 70v54M600 356v54M430 240h-54M824 240h-54" class="thin"/>
    <rect x="566" y="206" width="68" height="68" class="thin"/>
    <path d="M600 160v160M520 240h160" class="thin" opacity="0.45"/>
    <circle cx="600" cy="240" r="104" class="thin" opacity="0.35"/>
  </g>

  <!-- Main skull, drawn from pixel blocks -->
  <g transform="translate(444 118)" shape-rendering="crispEdges">
    <rect x="48" y="0" width="216" height="24" class="white"/>
    <rect x="24" y="24" width="264" height="24" class="white"/>
    <rect x="0" y="48" width="312" height="120" class="white"/>
    <rect x="24" y="168" width="264" height="24" class="white"/>
    <rect x="48" y="192" width="216" height="24" class="white"/>
    <rect x="72" y="216" width="168" height="24" class="white"/>
    <rect x="0" y="96" width="48" height="72" fill="#000"/>
    <rect x="264" y="96" width="48" height="72" fill="#000"/>
    <rect x="72" y="84" width="60" height="60" fill="#000"/>
    <rect x="180" y="84" width="60" height="60" fill="#000"/>
    <rect x="144" y="132" width="24" height="36" fill="#000"/>
    <rect x="96" y="180" width="24" height="36" fill="#000"/>
    <rect x="144" y="180" width="24" height="36" fill="#000"/>
    <rect x="192" y="180" width="24" height="36" fill="#000"/>
    <rect x="-34" y="92" width="34" height="84" class="white"/>
    <rect x="312" y="92" width="34" height="84" class="white"/>
    <rect x="-58" y="112" width="24" height="44" class="white"/>
    <rect x="346" y="112" width="24" height="44" class="white"/>
  </g>

  <!-- Detection boxes -->
  <g class="pulse">
    <rect x="414" y="94" width="372" height="296" class="stroke"/>
    <rect x="414" y="94" width="154" height="34" class="white"/>
    <text x="428" y="119" class="tiny" font-size="24" fill="#000">HEAD 0.97</text>
  </g>
  <g opacity="0.82">
    <rect x="158" y="150" width="168" height="142" class="thin"/>
    <rect x="158" y="150" width="118" height="28" class="white"/>
    <text x="170" y="171" class="tiny" font-size="18" fill="#000">SKULL</text>
    <rect x="906" y="160" width="156" height="132" class="thin"/>
    <rect x="906" y="160" width="130" height="28" class="white"/>
    <text x="918" y="181" class="tiny" font-size="18" fill="#000">TARGET</text>
  </g>

  <!-- Side mini skulls -->
  <g transform="translate(184 198)" shape-rendering="crispEdges" opacity="0.95">
    <rect x="16" y="0" width="72" height="12" class="white"/>
    <rect x="4" y="12" width="96" height="48" class="white"/>
    <rect x="16" y="60" width="72" height="12" class="white"/>
    <rect x="28" y="30" width="18" height="18" fill="#000"/>
    <rect x="58" y="30" width="18" height="18" fill="#000"/>
    <rect x="48" y="48" width="12" height="12" fill="#000"/>
  </g>
  <g transform="translate(936 204)" shape-rendering="crispEdges" opacity="0.95">
    <rect x="16" y="0" width="72" height="12" class="white"/>
    <rect x="4" y="12" width="96" height="48" class="white"/>
    <rect x="16" y="60" width="72" height="12" class="white"/>
    <rect x="28" y="30" width="18" height="18" fill="#000"/>
    <rect x="58" y="30" width="18" height="18" fill="#000"/>
    <rect x="48" y="48" width="12" height="12" fill="#000"/>
  </g>

  <!-- Title lockup -->
  <text x="600" y="76" text-anchor="middle" class="pixel blink" font-size="54">YOLO LIVE</text>
  <text x="600" y="428" text-anchor="middle" class="tiny" font-size="24">REAL-TIME ONNX DETECTION // BLACK-WHITE PIXEL CORE</text>
</svg>
